<svg width="52" height="52" viewBox="0 0 52 52" fill="none" xmlns="http://www.w3.org/2000/svg">
<path d="M26.0003 0C27.1969 0 28.167 0.97005 28.167 2.16667V26C28.167 27.1966 29.137 28.1667 30.3337 28.1667H36.8337C38.0303 28.1667 39.0003 29.1367 39.0003 30.3333V49.8333C39.0003 51.0299 38.0303 52 36.8337 52H17.3337C16.137 52 15.167 51.0299 15.167 49.8333V30.3333C15.167 29.1367 16.137 28.1667 17.3337 28.1667H19.5003C20.6969 28.1667 21.667 27.1966 21.667 26V10.8333C21.667 9.63672 20.6969 8.66667 19.5003 8.66667H17.3337C16.137 8.66667 15.167 7.69662 15.167 6.5V2.16667C15.167 0.97005 16.137 0 17.3337 0H26.0003Z" fill="white"/>
</svg>
