<svg width="52" height="52" viewBox="0 0 52 52" fill="none" xmlns="http://www.w3.org/2000/svg">
<path d="M21.6669 0C20.4703 0 19.5002 0.97005 19.5002 2.16667V4.33333C19.5002 5.52995 20.4703 6.5 21.6669 6.5L34.6669 6.5C35.8635 6.5 36.8336 7.47005 36.8336 8.66667V21.6667C36.8336 22.8633 35.8635 23.8333 34.6669 23.8333L21.6669 23.8333C20.4703 23.8333 19.5002 24.8034 19.5002 26V49.8333C19.5002 51.0299 20.4703 52 21.6669 52H41.1669C42.3635 52 43.3336 51.0299 43.3336 49.8333V47.6667C43.3336 46.4701 42.3635 45.5 41.1669 45.5H28.1669C26.9703 45.5 26.0002 44.5299 26.0002 43.3333V32.5C26.0002 31.3034 26.9703 30.3333 28.1669 30.3333L41.1669 30.3333C42.3635 30.3333 43.3336 29.3633 43.3336 28.1667V2.16667C43.3336 0.97005 42.3635 0 41.1669 0H21.6669Z" fill="white"/>
</svg>
