<svg width="52" height="52" viewBox="0 0 52 52" fill="none" xmlns="http://www.w3.org/2000/svg">
<path d="M34.6672 2.16667C34.6672 0.97005 33.6971 0 32.5005 0H15.1672C13.9705 0 13.0005 0.97005 13.0005 2.16667V4.33333C13.0005 5.52995 13.9705 6.5 15.1672 6.5L26.0005 6.5C27.1971 6.5 28.1672 7.47005 28.1672 8.66667V21.6667C28.1672 22.8633 27.1971 23.8333 26.0005 23.8333H15.1672C13.9705 23.8333 13.0005 24.8034 13.0005 26V28.1667C13.0005 29.3633 13.9705 30.3333 15.1672 30.3333L26.0005 30.3333C27.1971 30.3333 28.1672 31.3034 28.1672 32.5V43.3333C28.1672 44.5299 27.1971 45.5 26.0005 45.5H15.1672C13.9705 45.5 13.0005 46.4701 13.0005 47.6667V49.8333C13.0005 51.0299 13.9705 52 15.1672 52H39.0005C40.1971 52 41.1672 51.0299 41.1672 49.8333V29.7283C41.1672 28.7957 40.5704 27.9677 39.6857 27.6728L36.1487 26.4938C35.2639 26.1989 34.6672 25.371 34.6672 24.4384V2.16667Z" fill="white"/>
</svg>
