<svg width="48" height="48" viewBox="0 0 48 48" fill="none" xmlns="http://www.w3.org/2000/svg">
<path d="M36.4594 34.9219C36.3844 34.8937 36.3094 34.8562 36.2438 34.8C35.1469 33.9187 34.35 32.7187 33.5437 31.5844C32.7094 30.4031 31.7531 29.325 30.8438 28.2C30.3563 27.6 29.8875 26.9906 29.4187 26.3719C29.1187 25.8281 28.8 25.2937 28.4719 24.7594C28.6594 24.4406 28.8375 24.1219 29.0062 23.7937C29.0062 23.8031 29.0156 23.8031 29.0156 23.8125C29.9438 22.5281 30.8906 21.2531 31.8844 20.0156C33.6469 17.8125 35.4563 15.6562 37.1813 13.4344C35.4188 11.1375 33.7406 8.78437 32.3156 6.27187C31.9125 7.10625 31.5562 7.95937 31.2188 8.82187C30.6375 10.3031 30.0187 11.7656 29.2969 13.1906C28.275 15.2156 27.1781 17.2219 26.0062 19.1719L26.0437 19.2375C25.9594 19.35 25.875 19.4625 25.7906 19.575C25.6125 19.7625 25.4344 19.9406 25.2656 20.1187C25.0219 19.7437 24.7781 19.3594 24.525 18.9844C24.4875 18.9281 24.4594 18.8812 24.4219 18.825C22.9219 16.3125 21.4875 13.7531 20.1375 11.1562C19.6219 10.1625 19.0313 9.20625 18.4781 8.22187C18.0188 7.40625 17.475 6.525 17.25 5.60625C15.375 6.61875 13.5281 7.7625 12.0469 9.3C12.3281 9.45 12.5906 9.62812 12.8344 9.83437C13.7531 10.6031 14.475 11.5875 15.2062 12.5344C16.0219 13.5937 16.8844 14.6062 17.7094 15.6469C19.4062 17.8031 21.0188 20.0156 22.6969 22.1906C22.7063 22.1812 22.7156 22.1625 22.725 22.1531C22.95 22.4906 23.175 22.8281 23.4375 23.1281C23.3719 23.25 23.3062 23.3812 23.2406 23.5031C23.0812 23.7375 22.9312 23.9719 22.7812 24.2062C22.7719 24.1969 22.7625 24.1875 22.7531 24.1687C21.3844 26.1 19.9219 27.9562 18.3469 29.7187C16.7437 31.5281 15.0281 33.6094 12.8906 34.8469C12.9469 34.9688 12.9563 35.1094 12.9188 35.2312C13.7625 36.0937 14.8969 36.6562 15.6937 37.575C16.4344 38.4187 17.0906 39.3375 17.85 40.1625C18.6281 38.0719 19.9031 36.1687 21.225 34.3781C22.5469 32.5875 23.9156 30.825 25.2375 29.0344C25.4719 28.7625 25.6875 28.4719 25.9031 28.1812C26.1469 27.9094 26.4 27.6469 26.6156 27.3656C27 27.7781 27.3562 28.2094 27.7781 28.5844C28.6875 29.7656 29.5594 30.9656 30.3656 32.2125C32.0344 34.8 33.1969 37.65 34.7063 40.3312C35.5969 38.8031 36.6094 37.2844 37.0875 35.5875C36.9188 35.475 36.7594 35.325 36.5813 35.1562C36.5344 35.0812 36.4875 35.0062 36.4594 34.9219Z" fill="#EF4823"/>
<path d="M36.5156 33.45H36.5062C35.7562 32.7094 35.1562 31.8281 34.5469 30.9656C33.7125 29.775 32.7656 28.7063 31.8469 27.5813C31.1156 26.6813 30.4125 25.7625 29.7375 24.825C30.7125 23.475 31.6969 22.125 32.7375 20.8219C34.6031 18.4875 36.525 16.2 38.3531 13.8375C38.5031 13.6406 38.5969 13.3406 38.4281 13.125C36.4406 10.5469 34.5375 7.89375 32.9812 5.03438C32.9906 5.01563 33 4.99688 33.0094 4.9875C32.8594 4.73438 32.7281 4.4625 32.6062 4.19063C32.5406 4.07813 32.4844 3.975 32.4187 3.8625C32.4093 3.87188 32.3906 3.87188 32.3812 3.88125C32.2406 3.95625 32.1187 4.03125 31.9968 4.10625C31.9687 4.11563 31.95 4.125 31.9219 4.13438C31.8094 4.52813 31.65 4.92188 31.4437 5.26875C31.4531 5.2875 31.4625 5.29688 31.4719 5.31563C30.3094 7.54688 29.5687 10.0031 28.4531 12.2625C27.4875 14.2125 26.4375 16.1344 25.3219 18.0188C23.9344 15.6844 22.6125 13.3219 21.3562 10.9219C21.0937 10.4156 20.8125 9.91875 20.5312 9.4125C20.0719 8.775 19.6687 8.1 19.3687 7.37813C19.1062 6.92813 18.8437 6.45938 18.6375 5.98125C18.2906 5.39063 18 4.78125 17.7 4.17188C17.5875 4.1625 17.475 4.18125 17.3531 4.2375C15.1031 5.40938 12.8719 6.74063 11.1187 8.59688C11.0062 8.71875 10.9594 8.85938 10.9594 8.99063C11.4187 9.60938 11.8594 10.2469 12.2812 10.8844C12.8156 11.3531 13.2656 11.9344 13.6875 12.4688C14.4375 13.4156 15.2156 14.3531 15.9562 15.3C17.0156 16.65 18.0844 18 19.1344 19.3594C20.1094 20.6344 21.0375 21.9469 22.0218 23.2125C20.7093 25.0875 19.2844 26.8969 17.775 28.6219C16.8656 29.6625 15.9187 30.6938 14.9437 31.6781C14.1093 32.5219 13.2093 33.3188 12.1781 33.9094C12.1593 33.9188 12.1312 33.9281 12.1125 33.9375L11.5406 34.2375C11.1562 34.4344 11.1844 34.8281 11.4094 35.0813C11.4187 35.175 11.4469 35.2688 11.4937 35.3438C12.3281 36.5344 13.6218 37.2188 14.6625 38.1938C15.7875 39.2625 16.575 40.6406 17.7281 41.7C18.0656 42.0094 18.5812 41.8406 18.7031 41.4094C19.3875 39.0281 20.8406 36.8906 22.3125 34.9219C23.7656 32.9719 25.2469 31.0406 26.6906 29.0813C27.3844 29.9719 28.05 30.8813 28.6969 31.8094C29.6812 33.2344 30.5718 34.725 31.35 36.2719C32.1187 37.7812 32.8218 39.3281 33.6469 40.8094C33.8344 41.1562 34.0406 41.5031 34.2468 41.8406C34.4718 42.2156 35.0625 42.2063 35.2687 41.8125C36.3656 39.7406 37.8656 37.7531 38.3812 35.4281C38.1187 35.2031 37.875 34.9781 37.65 34.7531C37.2656 34.3781 36.825 33.9375 36.5156 33.45ZM34.7344 40.3313C33.225 37.6594 32.0625 34.8 30.3937 32.2125C29.5875 30.9656 28.7156 29.7656 27.8062 28.5844C27.3844 28.2094 27.0281 27.7781 26.6437 27.3656C26.4187 27.6469 26.175 27.9188 25.9312 28.1813C25.725 28.4719 25.5 28.7625 25.2656 29.0344C23.9344 30.825 22.575 32.5781 21.2531 34.3781C19.9312 36.1594 18.6562 38.0625 17.8781 40.1625C17.1187 39.3375 16.4531 38.4188 15.7219 37.575C14.925 36.6562 13.7906 36.0938 12.9469 35.2313C12.9937 35.1094 12.975 34.9688 12.9187 34.8469C15.0656 33.6188 16.7719 31.5281 18.375 29.7188C19.9406 27.9563 21.4125 26.1 22.7812 24.1688C22.7906 24.1781 22.8 24.1875 22.8094 24.2063C22.9594 23.9719 23.1093 23.7375 23.2687 23.5031C23.3343 23.3813 23.4 23.25 23.4656 23.1281C23.2031 22.8281 22.9781 22.4906 22.7531 22.1531C22.7437 22.1625 22.7344 22.1813 22.725 22.1906C21.0469 20.025 19.4344 17.8031 17.7375 15.6469C16.9125 14.5969 16.05 13.5844 15.2344 12.5344C14.5031 11.5875 13.7812 10.6125 12.8625 9.83438C12.6187 9.62813 12.3562 9.45 12.075 9.3C13.5562 7.7625 15.4031 6.61875 17.2781 5.60625C17.5031 6.525 18.0468 7.40625 18.5062 8.22188C19.0594 9.19688 19.6406 10.1625 20.1656 11.1563C21.5156 13.7531 22.95 16.3125 24.45 18.825C24.4875 18.8813 24.525 18.9281 24.5531 18.9844C24.8062 19.3594 25.05 19.7344 25.2937 20.1188C25.4625 19.9313 25.6406 19.7531 25.8187 19.575C25.9031 19.4625 25.9875 19.35 26.0719 19.2375L26.0344 19.1719C27.2062 17.2125 28.3031 15.2156 29.325 13.1906C30.0469 11.7656 30.6562 10.3031 31.2468 8.82188C31.5844 7.95938 31.9406 7.10625 32.3437 6.27188C33.7687 8.78438 35.4562 11.1375 37.2094 13.4344C35.475 15.6563 33.675 17.8219 31.9125 20.0156C30.9187 21.2625 29.9718 22.5281 29.0437 23.8125C29.0437 23.8031 29.0344 23.8031 29.0344 23.7938C28.875 24.1219 28.6969 24.4406 28.5 24.7594C28.8375 25.2844 29.1469 25.8188 29.4469 26.3719C29.9062 26.9906 30.3843 27.6 30.8718 28.2C31.7812 29.325 32.7375 30.3938 33.5719 31.5844C34.3781 32.7188 35.175 33.9188 36.2719 34.8C36.3375 34.8563 36.4125 34.8938 36.4875 34.9219C36.5156 35.0063 36.5625 35.0813 36.6375 35.1563C36.8062 35.325 36.9656 35.475 37.1437 35.5875C36.6281 37.2844 35.6156 38.8031 34.7344 40.3313Z" fill="black"/>
</svg>
