<svg width="48" height="48" viewBox="0 0 48 48" fill="none" xmlns="http://www.w3.org/2000/svg">
<path d="M32.475 21.6938C32.1751 21.0188 31.8657 20.3344 31.8657 19.575C31.8657 18.9375 32.1563 18.4125 32.2219 17.8031C32.2501 17.5594 32.2407 17.4 31.9782 17.3344C31.7157 17.2781 31.4719 17.2875 31.2188 17.3719C30.7219 17.5313 30.1501 17.85 29.8126 18.2813C29.7938 18.6094 29.4282 18.9188 29.0907 18.6563C27.9 17.7375 26.1282 17.7094 24.6938 17.7656C23.3438 17.8219 21.9 17.9813 20.6157 18.4219C20.5407 18.45 20.4563 18.4594 20.3907 18.45C20.2782 18.45 20.1563 18.4031 20.0532 18.3094C19.6969 17.9625 19.3313 17.625 18.9375 17.325C18.525 17.0156 17.9907 16.5938 17.4563 16.5656C16.4063 16.5094 17.0719 18.4219 17.3157 19.275C17.5125 19.4063 17.6157 19.6688 17.4563 19.9219C17.0063 20.5969 16.1907 21.1219 15.9094 21.9094C15.6375 22.6781 15.6657 23.475 15.8532 24.2625C16.0125 24.975 16.2938 25.6125 16.7438 26.1938C17.0907 26.6438 17.6719 27.375 18.3282 27.2531C18.4688 27.225 18.5907 27.2625 18.6844 27.3281C19.8844 27.5063 20.8688 28.4531 21.1501 29.6344C21.4688 31.0031 20.6907 32.1938 19.3875 32.6438C18.0188 33.1219 16.7532 32.6812 16.1063 31.3875C15.8907 30.9656 15.7688 30.4688 15.4969 30.075C15.3188 29.8219 15.0938 29.7188 14.8313 29.7C15.0375 30.7125 14.925 31.8469 15.7125 32.6156C16.6032 33.4781 17.8219 33.2719 18.9469 33.3656C19.7907 33.4406 20.4094 33.9 20.2407 34.8188C20.1375 35.4 19.9032 35.9719 19.7063 36.5344C19.5094 37.1063 19.4719 37.5938 19.4626 38.175C19.6032 38.1938 19.7532 38.2219 19.8938 38.2406C22.65 38.5875 25.4438 38.1375 27.9938 37.0688C27.9376 36.9281 27.9375 36.7594 28.0594 36.6C28.2282 36.375 28.2188 35.9906 28.2094 35.7281C28.1907 35.2781 28.125 34.8188 28.0125 34.3781C27.8344 33.6469 27.6282 32.8406 27.2063 32.2125C26.7094 31.4625 25.9969 30.75 25.875 29.8219C25.7719 29.0344 26.1938 27.8063 27.1032 27.7219C27.2157 27.7125 27.3188 27.7406 27.3938 27.7875C28.2751 27.675 29.1751 27.525 30.0094 27.2156C30.8063 26.9156 31.4532 26.5031 32.0438 25.8938C32.55 25.3688 32.9719 24.7125 33.0188 23.9719C33.0657 23.1469 32.8032 22.4156 32.475 21.6938Z" fill="#283D5B"/>
<path d="M38.0532 20.8781C37.022 16.2844 33.272 12.5906 28.8282 11.2125C26.7282 10.5656 24.4876 10.3406 22.322 10.7344C20.4001 11.0812 18.6564 11.9438 17.0345 13.0125C15.3001 14.1656 13.6501 15.5437 12.4126 17.2406C11.5407 18.4406 10.847 19.8938 10.8939 21.3844C10.8939 21.3938 10.8845 21.4125 10.8845 21.4219C10.8564 21.9469 10.8001 22.4625 10.7532 22.9875C10.7064 23.0063 10.6689 23.0156 10.622 23.025C10.5657 23.6438 10.472 24.2719 10.4532 24.9C10.4345 25.5563 10.4345 26.2125 10.472 26.8781C10.5376 28.1719 10.7064 29.4656 11.0532 30.7125C11.5782 32.5688 12.4595 34.3594 13.8939 35.6812C15.197 36.8813 16.8095 37.6125 18.5064 37.9969V37.9312C18.5064 37.9125 18.5064 37.8844 18.5064 37.8656C18.5157 37.4062 18.5532 36.975 18.7126 36.5062C18.9001 35.925 19.1626 35.3344 19.2751 34.7344C19.3314 34.4156 19.3314 34.3688 19.0126 34.3219C18.5345 34.2563 18.0376 34.2938 17.5501 34.2656C16.9782 34.2281 16.3876 34.1438 15.872 33.8906C15.347 33.6281 15.0001 33.2719 14.6439 32.8125C13.8939 31.8375 14.1751 30.5625 13.7439 29.475C13.6595 29.2594 13.7907 28.9312 14.0345 28.875C14.9814 28.6594 15.872 28.8375 16.3501 29.7563C16.7157 30.4406 16.9126 31.5188 17.7189 31.8375C18.7501 32.2406 20.3251 31.425 20.2501 30.225C20.1845 29.1656 19.3689 28.3313 18.3189 28.2281C18.272 28.2281 18.2345 28.2188 18.197 28.2C17.4095 28.2188 16.7157 27.6656 16.2189 27.075C15.6564 26.4094 15.2251 25.6594 15.0001 24.8156C14.7376 23.8219 14.6532 22.8188 14.9345 21.825C15.1876 20.9344 15.9001 20.3813 16.4439 19.6969C16.3126 18.8438 15.9001 18.0375 15.9282 17.1562C15.947 16.4812 16.4251 15.7031 17.1564 15.6375C18.4501 15.525 19.6314 16.5937 20.5314 17.475C21.9282 17.0437 23.4282 16.8656 24.8814 16.8281C26.2782 16.7906 27.9095 16.8656 29.1657 17.5781C29.6157 17.0625 30.3001 16.6875 30.9282 16.4812C31.5845 16.2656 32.4939 16.2844 32.9439 16.8844C33.3751 17.4469 33.1032 18.225 32.9157 18.825C32.6439 19.7063 32.9532 20.4844 33.3189 21.2812C33.7032 22.1344 34.0407 23.0719 33.947 24.0281C33.8532 24.9 33.4782 25.6594 32.9064 26.3156C32.2595 27.0563 31.4907 27.6469 30.5626 27.9938C29.5126 28.3875 28.4251 28.6031 27.3189 28.7344C27.2345 28.7437 27.1595 28.7344 27.0939 28.7156C27.0001 28.8281 26.8689 29.0813 26.8407 29.175C26.7751 29.3625 26.7657 29.5594 26.8032 29.7563C26.8876 30.1875 27.1689 30.5812 27.422 30.9281C27.872 31.5469 28.2657 32.1375 28.5282 32.8688C28.8095 33.6563 29.0345 34.5 29.1095 35.3344C29.147 35.7469 29.1564 36.1781 29.0532 36.5812C30.5251 35.85 31.8845 34.9031 33.0845 33.7875C36.5814 30.5344 39.1501 25.7625 38.0532 20.8781Z" fill="#D6E5E5"/>
<path d="M44.7375 16.1344C42.7406 12.0656 38.9625 8.86875 34.9688 6.85312C30.9656 4.81875 26.325 3.75 21.8344 4.4625C14.4375 5.625 7.275 11.0531 5.15625 18.3281C5.15625 18.4125 5.1375 18.4875 5.09062 18.5719C5.05312 18.7031 5.01562 18.8437 4.9875 18.975C4.94062 19.0687 4.89375 19.1625 4.85625 19.2656C4.84687 19.35 4.82812 19.4437 4.81875 19.5187C4.73437 19.9031 4.63125 20.2875 4.56562 20.6719C4.43437 21.3937 4.4625 22.1437 4.20937 22.8281C4.19062 23.025 4.1625 23.2219 4.13437 23.4187C4.13437 23.4469 4.13437 23.4656 4.13437 23.4844C4.0875 23.8969 4.05 24.3094 4.0125 24.7219C3.9375 25.5844 3.9 26.4469 3.90937 27.3094C3.9375 29.0062 4.13437 30.7031 4.55625 32.3437C5.37187 35.4656 6.94687 38.4187 9.43125 40.5281C11.1375 41.9812 13.1344 42.9375 15.2812 43.5562C17.625 44.2406 20.0625 44.625 22.5094 44.6344C27.3375 44.6437 32.1844 43.3312 36.1594 40.5375C43.5094 35.3625 49.05 24.9 44.7375 16.1344ZM23.2781 39.2156C18.9469 39.6094 14.1937 38.3531 11.7281 34.5187C10.6594 32.8594 10.0406 30.9469 9.75 29.0062C9.6 27.9937 9.51562 26.9719 9.51562 25.95C9.51562 25.4156 9.525 24.8812 9.55312 24.3469C9.59062 23.7562 9.70312 23.175 9.72187 22.5937C9.73125 22.3687 9.87187 22.2094 10.05 22.1437C9.72187 20.1562 10.5281 18.2156 11.7188 16.6125C13.125 14.7094 15.0187 13.1437 17.025 11.9062C18.6844 10.8844 20.4469 10.0781 22.3875 9.76875C24.5437 9.42187 26.8031 9.6 28.8937 10.2469C33.2625 11.6062 37.1531 14.8969 38.6062 19.3312C41.7562 28.9312 32.4562 38.3812 23.2781 39.2156Z" fill="#D6E5E5"/>
<path d="M21.375 3.59062C20.5687 3.73125 19.7719 3.91875 18.9844 4.14375H30.6281C27.6188 3.30937 24.45 3.05625 21.375 3.59062Z" fill="black"/>
<path d="M44.7094 14.175C42.3469 10.3875 38.5313 7.4625 34.5188 5.5875C33.2625 5.00625 31.9594 4.51875 30.6188 4.14375H18.9844C12.225 6.12187 6.15003 11.3812 4.22815 18.1781C3.91878 18.6937 3.8719 19.4062 3.74065 19.9781C3.6469 20.3813 3.58128 20.7937 3.52503 21.2062C3.51565 21.2437 3.51565 21.2906 3.50628 21.3281C3.4969 21.3562 3.48753 21.375 3.48753 21.4031C3.41253 21.7969 3.3469 22.1906 3.29065 22.5844C3.29065 22.5937 3.28128 22.5938 3.28128 22.6031C3.2344 22.7156 3.22503 22.8188 3.24378 22.9031C3.15003 23.6625 3.0844 24.4219 3.02815 25.1812C2.95315 26.25 2.94378 27.3281 3.00003 28.3969C3.1219 30.4875 3.52503 32.5687 4.2469 34.5375C5.68128 38.4562 8.51253 41.7094 12.3188 43.4719C14.4844 44.4656 16.8938 45.0375 19.2469 45.3469C21.6375 45.6562 24.075 45.6375 26.4657 45.2906C31.2375 44.5969 35.7 42.5062 39.225 39.2156C42.6375 36.0375 45.3188 31.9406 46.5469 27.4219C47.7844 22.9312 47.1938 18.15 44.7094 14.175ZM36.15 40.5469C32.175 43.3406 27.3282 44.6531 22.5 44.6437C20.0625 44.6344 17.625 44.25 15.2813 43.5656C13.1344 42.9375 11.1375 41.9906 9.43128 40.5375C6.9469 38.4281 5.3719 35.475 4.55628 32.3531C4.12503 30.7125 3.93753 29.0156 3.9094 27.3187C3.89065 26.4562 3.92815 25.5937 4.01253 24.7312C4.05003 24.3187 4.08753 23.9062 4.1344 23.4937C4.1344 23.475 4.1344 23.4469 4.1344 23.4281C4.16253 23.2312 4.19065 23.0344 4.2094 22.8375C4.46253 22.1531 4.4344 21.3937 4.56565 20.6812C4.64065 20.2969 4.7344 19.9125 4.81878 19.5281C4.83753 19.4531 4.8469 19.3687 4.85628 19.275C4.89378 19.1812 4.94065 19.0781 4.98753 18.9844C5.02503 18.8531 5.05315 18.7125 5.09065 18.5812C5.13753 18.4969 5.16565 18.4125 5.15628 18.3375C7.27503 11.0531 14.4375 5.625 21.8344 4.4625C26.325 3.75 30.9563 4.81875 34.9688 6.85312C38.9625 8.86875 42.7313 12.075 44.7375 16.1344C49.05 24.9 43.5094 35.3625 36.15 40.5469Z" fill="black"/>
<path d="M38.597 19.3406C37.1345 14.9063 33.2532 11.6156 28.8845 10.2563C26.7938 9.60938 24.5438 9.43125 22.3782 9.77813C20.4376 10.0875 18.6751 10.8844 17.0157 11.9156C15.0095 13.1531 13.1251 14.7281 11.7095 16.6219C10.5188 18.225 9.7126 20.1656 10.0407 22.1531C9.87197 22.2188 9.72197 22.3688 9.7126 22.6031C9.69385 23.1844 9.57197 23.775 9.54385 24.3562C9.51572 24.8906 9.50635 25.425 9.50635 25.9594C9.51572 26.9813 9.59072 28.0031 9.74072 29.0156C10.0313 30.9563 10.6501 32.8687 11.7188 34.5281C14.1845 38.3531 18.9376 39.6094 23.2688 39.225C32.4563 38.3812 41.7563 28.9313 38.597 19.3406ZM28.0501 36.5906C27.9282 36.75 27.9282 36.9187 27.9845 37.0594C25.4345 38.1281 22.6407 38.5781 19.8845 38.2312C19.7438 38.2125 19.5938 38.1938 19.4532 38.1656C19.4626 37.5844 19.5001 37.0969 19.697 36.525C19.8845 35.9625 20.1188 35.3906 20.2313 34.8094C20.4001 33.8906 19.772 33.4312 18.9376 33.3562C17.8032 33.2625 16.5938 33.4594 15.7032 32.6062C14.9063 31.8469 15.0282 30.7031 14.822 29.6906C15.0845 29.7 15.3095 29.8031 15.4876 30.0656C15.7595 30.4594 15.8907 30.9469 16.097 31.3781C16.7438 32.6813 18.0095 33.1125 19.3782 32.6344C20.672 32.1844 21.4595 30.9937 21.1407 29.625C20.8595 28.4438 19.8751 27.4969 18.6751 27.3188C18.5813 27.2531 18.4688 27.2156 18.3188 27.2438C17.6626 27.3656 17.0907 26.6344 16.7345 26.1844C16.2845 25.6031 16.0126 24.9656 15.8438 24.2531C15.6657 23.4656 15.6282 22.6688 15.9001 21.9C16.1813 21.1125 16.997 20.5969 17.447 19.9125C17.6157 19.6594 17.5032 19.3969 17.3063 19.2656C17.0626 18.4031 16.397 16.5 17.447 16.5563C17.9907 16.5844 18.5251 17.0063 18.9282 17.3156C19.322 17.6156 19.697 17.9531 20.0438 18.3C20.147 18.4031 20.2595 18.4406 20.3813 18.4406C20.4563 18.45 20.5313 18.4406 20.6063 18.4125C21.8907 17.9719 23.3345 17.8031 24.6845 17.7563C26.1188 17.7 27.8907 17.7281 29.0813 18.6469C29.4188 18.9094 29.7845 18.6 29.8032 18.2719C30.1407 17.8406 30.7032 17.5219 31.2095 17.3625C31.472 17.2781 31.7063 17.2688 31.9688 17.325C32.2407 17.3813 32.2407 17.55 32.2126 17.7938C32.147 18.4031 31.8563 18.9281 31.8563 19.5656C31.8563 20.3156 32.1563 21.0094 32.4657 21.6844C32.7938 22.4063 33.0563 23.1469 33.0001 23.9438C32.9532 24.6938 32.5313 25.3406 32.0251 25.8656C31.4345 26.475 30.7876 26.8969 29.9907 27.1875C29.1563 27.4969 28.2563 27.6563 27.3751 27.7594C27.3001 27.7125 27.2063 27.6844 27.0845 27.6938C26.1751 27.7781 25.7532 29.0062 25.8563 29.7937C25.9782 30.7219 26.6907 31.4344 27.1876 32.1844C27.6095 32.8125 27.8157 33.6187 27.9938 34.35C28.097 34.7906 28.1626 35.2406 28.1907 35.7C28.2188 35.9812 28.2282 36.3656 28.0501 36.5906ZM33.0938 33.7781C31.8938 34.8937 30.5251 35.8406 29.0626 36.5719C29.1657 36.1687 29.1563 35.7375 29.1188 35.325C29.0438 34.4906 28.8188 33.6469 28.5376 32.8594C28.2751 32.1281 27.8813 31.5469 27.4313 30.9187C27.1782 30.5625 26.897 30.1781 26.8126 29.7469C26.7751 29.55 26.7845 29.3531 26.8501 29.1656C26.8782 29.0719 27.0095 28.8188 27.1032 28.7063C27.1688 28.725 27.2438 28.7437 27.3282 28.725C28.4345 28.5938 29.522 28.3781 30.572 27.9844C31.5001 27.6375 32.2595 27.0469 32.9157 26.3063C33.4876 25.65 33.872 24.8906 33.9563 24.0188C34.0501 23.0625 33.7126 22.125 33.3282 21.2719C32.972 20.4656 32.6532 19.6969 32.9251 18.8156C33.1126 18.2156 33.3845 17.4375 32.9532 16.875C32.5032 16.275 31.5938 16.2563 30.9376 16.4719C30.3095 16.6781 29.6251 17.0531 29.1751 17.5687C27.9188 16.8469 26.2876 16.7812 24.8907 16.8187C23.4376 16.8562 21.9376 17.025 20.5407 17.4656C19.6407 16.5844 18.4595 15.5156 17.1657 15.6281C16.4345 15.6938 15.9563 16.4812 15.9376 17.1469C15.9095 18.0188 16.322 18.8344 16.4532 19.6875C15.9095 20.3719 15.197 20.9344 14.9438 21.8156C14.6626 22.8094 14.747 23.8125 15.0095 24.8063C15.2345 25.65 15.6657 26.4 16.2282 27.0656C16.7251 27.6563 17.4188 28.2094 18.2063 28.1906C18.2438 28.2 18.2813 28.2094 18.3282 28.2188C19.3782 28.3219 20.1938 29.1469 20.2595 30.2156C20.3345 31.4062 18.7501 32.2219 17.7282 31.8281C16.922 31.5094 16.7157 30.4406 16.3595 29.7469C15.8813 28.8281 14.9907 28.65 14.0438 28.8656C13.8001 28.9219 13.6688 29.2406 13.7532 29.4656C14.1845 30.5531 13.8938 31.8281 14.6532 32.8031C15.0095 33.2625 15.3563 33.6187 15.8813 33.8812C16.397 34.1344 16.9876 34.2187 17.5595 34.2562C18.047 34.2844 18.5345 34.2469 19.022 34.3125C19.3407 34.3594 19.3407 34.4062 19.2845 34.725C19.172 35.325 18.9095 35.9156 18.722 36.4969C18.572 36.9656 18.5251 37.3969 18.5157 37.8562C18.5157 37.875 18.5157 37.9031 18.5157 37.9219V37.9875C16.8095 37.6031 15.2063 36.8719 13.9032 35.6719C12.4688 34.35 11.5782 32.5594 11.0626 30.7031C10.7157 29.4563 10.547 28.1625 10.4813 26.8688C10.4438 26.2125 10.4438 25.5563 10.4626 24.8906C10.4813 24.2625 10.5751 23.6438 10.6313 23.0156C10.6782 23.0063 10.7251 22.9969 10.7626 22.9781C10.8095 22.4531 10.8657 21.9375 10.8938 21.4125C10.8938 21.4031 10.8938 21.3844 10.9032 21.375C10.8563 19.8844 11.5501 18.4406 12.422 17.2313C13.6501 15.5344 15.3001 14.1562 17.0438 13.0031C18.6563 11.9344 20.4095 11.0719 22.3313 10.725C24.5063 10.3313 26.7376 10.5563 28.8376 11.2031C33.2813 12.5813 37.0313 16.275 38.0626 20.8688C39.1501 25.7625 36.5813 30.5344 33.0938 33.7781Z" fill="#010101"/>
</svg>
