<svg width="48" height="48" viewBox="0 0 48 48" fill="none" xmlns="http://www.w3.org/2000/svg">
<path d="M11.9619 41.917C12.2939 42.164 12.6399 42.391 13.0049 42.589C13.9829 43.118 15.0669 43.417 16.1509 43.663C23.0429 45.229 31.2069 45.266 36.8209 40.354C43.0719 34.884 46.4659 25.262 44.1139 17.18C43.8629 16.317 43.5519 15.472 43.2229 14.635C42.7619 13.461 42.2639 12.297 41.6369 11.202C36.8969 2.927 24.7279 0.222 16.5819 4.27C15.5399 4.788 14.5439 5.394 13.5509 6C11.2929 7.376 9.34694 9.169 7.57394 11.131C2.55494 16.685 1.08594 24.689 3.36994 31.502C4.58594 35.13 7.53294 37.911 10.3319 40.52C10.8559 41.008 11.3889 41.491 11.9619 41.917Z" fill="#4B7BB2"/>
<path d="M24.051 45.113C21.204 45.113 18.438 44.695 16.041 44.15C14.963 43.905 13.82 43.598 12.767 43.028C12.397 42.827 12.037 42.594 11.664 42.318C11.105 41.902 10.592 41.445 9.99197 40.885C7.26297 38.344 4.17197 35.463 2.89597 31.66C0.502974 24.526 2.19397 16.336 7.20197 10.795C9.25197 8.526 11.243 6.818 13.29 5.571C14.283 4.966 15.301 4.346 16.358 3.82C24.306 -0.128 36.988 2.084 42.07 10.952C42.751 12.14 43.269 13.388 43.687 14.451C43.963 15.153 44.315 16.083 44.593 17.039C46.902 24.972 43.772 34.935 37.15 40.728C33.359 44.047 28.602 45.113 24.051 45.113ZM24.97 2.925C22.045 2.925 19.199 3.528 16.804 4.718C15.784 5.224 14.785 5.832 13.82 6.42C11.848 7.622 9.92897 9.271 7.94497 11.466C3.17497 16.744 1.56597 24.546 3.84397 31.343C5.03897 34.906 8.03197 37.695 10.674 40.155C11.249 40.692 11.739 41.129 12.261 41.516H12.262C12.595 41.764 12.916 41.972 13.244 42.15C14.19 42.663 15.255 42.947 16.263 43.176C22.266 44.54 30.646 45.091 36.492 39.978C42.836 34.427 45.839 24.898 43.633 17.32C43.366 16.402 43.025 15.501 42.757 14.818C42.353 13.789 41.852 12.584 41.203 11.451C37.917 5.716 31.263 2.925 24.97 2.925Z" fill="#010101"/>
<path d="M33.955 16.751C33.918 16.72 33.885 16.681 33.855 16.633C33.743 16.45 33.718 16.229 33.653 16.025C33.437 15.343 32.773 14.879 32.079 14.704C31.385 14.529 30.656 14.593 29.943 14.659C29.375 14.711 28.799 14.765 28.27 14.978C27.712 15.202 27.236 15.59 26.813 16.017C25.715 17.126 24.915 18.566 24.729 20.116C24.703 20.335 24.66 20.597 24.458 20.686C24.37 20.725 24.27 20.72 24.175 20.712C21.666 20.526 19.331 19.417 17.063 18.326C16.36 17.988 15.648 17.643 15.017 17.178C14.732 16.967 13.689 15.599 13.533 16.234C13.097 18.011 13.361 19.949 14.256 21.545C14.469 21.925 14.733 22.302 15.121 22.5C14.468 22.396 13.814 22.292 13.161 22.188C13.099 22.594 13.038 23.02 13.175 23.407C13.261 23.648 13.417 23.857 13.572 24.061C14.017 24.649 14.461 25.236 14.906 25.824C15.22 26.239 15.539 26.659 15.958 26.968C16.376 27.277 16.915 27.463 17.422 27.345C16.77 27.534 16.078 27.585 15.405 27.495C15.594 28.494 16.194 29.408 17.035 29.979C17.876 30.55 18.947 30.772 19.945 30.581C19.56 31.168 18.909 31.519 18.271 31.812C17.325 32.247 16.346 32.609 15.346 32.896C14.828 33.044 14.305 33.172 13.777 33.279C13.625 33.31 13.026 33.325 12.934 33.431C12.842 33.538 12.793 33.798 13.034 33.871C13.111 33.895 13.188 33.928 13.265 33.953C16.369 34.968 19.905 35.945 23.178 35.258C24.964 34.883 26.606 34.014 28.16 33.058C28.938 32.58 29.706 32.072 30.358 31.433C31.345 30.464 32.027 29.232 32.65 27.997C33.319 26.672 33.94 25.315 34.39 23.897C34.624 23.16 34.812 22.407 34.932 21.643C34.98 21.336 34.921 20.931 34.975 20.659C35.063 20.218 35.549 20.263 35.851 19.936C36.515 19.219 37.059 18.392 37.455 17.498C36.67 17.745 36.03 18.398 35.213 18.492C35.874 17.735 36.338 16.807 36.548 15.823C36.449 16.288 35.315 16.671 34.93 16.754C34.623 16.821 34.211 16.971 33.955 16.751Z" fill="#D6E5E5"/>
<path d="M20.873 35.987C18.304 35.987 15.648 35.258 13.109 34.429L12.888 34.35C12.64 34.275 12.457 34.095 12.388 33.857C12.314 33.605 12.379 33.31 12.553 33.106C12.741 32.887 13.039 32.849 13.509 32.806C13.581 32.799 13.644 32.794 13.681 32.788C14.192 32.684 14.702 32.559 15.207 32.415C16.183 32.136 17.1431 31.78 18.061 31.357C18.2361 31.277 18.411 31.192 18.578 31.1C17.929 31.004 17.301 30.764 16.753 30.391C15.799 29.743 15.128 28.721 14.913 27.586C14.883 27.429 14.931 27.266 15.041 27.149C15.101 27.086 15.174 27.042 15.253 27.016C14.965 26.73 14.726 26.412 14.506 26.122L13.174 24.359C13.016 24.151 12.819 23.892 12.704 23.571C12.521 23.054 12.602 22.53 12.667 22.108C12.688 21.977 12.759 21.859 12.866 21.78C12.973 21.702 13.107 21.67 13.239 21.69L13.818 21.783C12.863 20.077 12.582 18.01 13.047 16.11C13.141 15.726 13.415 15.615 13.529 15.585C14.051 15.445 14.533 15.961 15.046 16.502C15.159 16.621 15.254 16.726 15.315 16.773C15.919 17.219 16.641 17.565 17.279 17.871C19.482 18.932 21.761 20.028 24.209 20.209C24.213 20.186 24.222 20.127 24.231 20.053C24.419 18.481 25.21 16.921 26.456 15.662C27.017 15.097 27.533 14.73 28.082 14.511C28.686 14.269 29.3291 14.21 29.896 14.158C30.607 14.094 31.413 14.017 32.2001 14.216C33.1411 14.455 33.8811 15.089 34.1291 15.871C34.1521 15.945 34.1711 16.02 34.1911 16.096C34.2171 16.203 34.243 16.305 34.278 16.365C34.356 16.372 34.557 16.329 34.668 16.302L34.822 16.266C35.309 16.161 35.972 15.854 36.069 15.689C36.128 15.418 36.3941 15.258 36.6571 15.32C36.9281 15.378 37.095 15.658 37.037 15.928C36.931 16.423 36.766 16.905 36.55 17.36C36.786 17.229 37.033 17.107 37.306 17.021C37.4921 16.963 37.698 17.018 37.828 17.166C37.959 17.312 37.992 17.521 37.912 17.701C37.492 18.649 36.9231 19.516 36.2191 20.276C36.0301 20.48 35.8071 20.585 35.6451 20.661C35.5811 20.69 35.484 20.736 35.461 20.76C35.448 20.844 35.45 20.996 35.452 21.144C35.4541 21.343 35.453 21.546 35.426 21.722C35.309 22.468 35.1201 23.251 34.8661 24.048C34.3631 25.637 33.656 27.113 33.0961 28.223C32.5021 29.397 31.7801 30.738 30.7071 31.789C30.0191 32.466 29.201 33.003 28.421 33.483C26.978 34.372 25.238 35.336 23.279 35.748C22.491 35.914 21.687 35.987 20.873 35.987ZM14.151 33.712C17.012 34.616 20.147 35.384 23.075 34.77C24.884 34.389 26.528 33.476 27.898 32.632C28.7421 32.112 29.423 31.65 30.0061 31.076C30.9711 30.13 31.646 28.874 32.203 27.771C32.745 26.696 33.43 25.266 33.912 23.745C34.15 22.996 34.3271 22.263 34.4361 21.565C34.4571 21.44 34.452 21.294 34.451 21.154C34.449 20.956 34.4461 20.751 34.4841 20.562C34.5861 20.051 34.982 19.866 35.218 19.754C35.33 19.702 35.4271 19.657 35.4831 19.596C35.7481 19.311 35.9911 19.009 36.2121 18.692C35.9241 18.835 35.6161 18.949 35.2701 18.99C35.0531 19.01 34.8661 18.908 34.7701 18.725C34.673 18.542 34.7 18.32 34.835 18.163C35.122 17.835 35.3681 17.473 35.5671 17.086C35.2671 17.191 35.0391 17.241 35.0331 17.243L34.905 17.273C34.561 17.356 34.042 17.486 33.627 17.128C33.627 17.128 33.626 17.128 33.626 17.127C33.55 17.062 33.4831 16.982 33.4281 16.892C33.3101 16.703 33.2601 16.499 33.2201 16.337C33.2061 16.281 33.193 16.227 33.176 16.173C33.003 15.63 32.432 15.307 31.955 15.186C31.338 15.03 30.6511 15.092 29.9881 15.155C29.4641 15.203 28.923 15.252 28.4541 15.439C28.036 15.607 27.627 15.902 27.167 16.366C26.077 17.468 25.387 18.82 25.224 20.173C25.197 20.401 25.133 20.932 24.659 21.141C24.45 21.233 24.245 21.219 24.134 21.207C21.501 21.013 19.029 19.823 16.847 18.773C16.171 18.449 15.404 18.081 14.721 17.578C14.635 17.515 14.491 17.368 14.323 17.191C14.233 17.096 14.076 16.93 13.928 16.791C13.661 18.322 13.933 19.942 14.694 21.299C14.847 21.572 15.06 21.904 15.35 22.053C15.569 22.164 15.674 22.419 15.598 22.653C15.522 22.887 15.293 23.027 15.044 22.993L13.597 22.763C13.588 22.934 13.598 23.099 13.648 23.24C13.71 23.414 13.843 23.59 13.971 23.759L15.305 25.523C15.593 25.904 15.89 26.297 16.255 26.567C16.602 26.821 16.991 26.929 17.31 26.859C17.57 26.798 17.838 26.959 17.907 27.22C17.974 27.483 17.8221 27.751 17.561 27.826C17.0841 27.964 16.583 28.035 16.084 28.038C16.334 28.653 16.764 29.191 17.316 29.567C18.052 30.067 18.975 30.258 19.85 30.09C20.048 30.055 20.247 30.136 20.359 30.303C20.471 30.47 20.472 30.687 20.362 30.855C19.913 31.543 19.192 31.94 18.48 32.267C17.515 32.711 16.506 33.085 15.483 33.377C15.043 33.503 14.599 33.614 14.151 33.712Z" fill="#010101"/>
</svg>
