<svg width="48" height="48" viewBox="0 0 48 48" fill="none" xmlns="http://www.w3.org/2000/svg">
<path d="M43.1437 17.3906C41.1469 13.3219 37.3687 10.125 33.375 8.10938C29.3625 6.075 24.7219 5.00625 20.2406 5.71875C12.8437 6.89063 5.67187 12.3094 3.5625 19.5844C3.5625 19.6687 3.54375 19.7438 3.49687 19.8281C3.45937 19.9594 3.42187 20.1 3.39375 20.2313C3.34687 20.325 3.3 20.4187 3.2625 20.5219C3.25312 20.6062 3.23437 20.7 3.225 20.775C3.14062 21.1594 3.0375 21.5437 2.97187 21.9281C2.84062 22.65 2.86875 23.4 2.61562 24.0844C2.59687 24.2812 2.56875 24.4781 2.54062 24.675C2.54062 24.7031 2.54062 24.7219 2.54062 24.7406C2.49375 25.1531 2.45625 25.5656 2.41875 25.9781C2.34375 26.8406 2.30625 27.7031 2.31562 28.5656C2.34375 30.2625 2.54062 31.9594 2.9625 33.6C3.77812 36.7219 5.35312 39.675 7.8375 41.7844C9.54375 43.2375 11.5406 44.1937 13.6875 44.8125C16.0312 45.4969 18.4688 45.8812 20.9156 45.8906C25.7437 45.9 30.5906 44.5875 34.5656 41.7937C41.9156 36.6281 47.4562 26.1562 43.1437 17.3906ZM36.6094 30.4406C36.5812 31.4719 36.45 32.5687 35.8781 33.45C35.25 34.4344 34.3312 35.0719 33.2437 35.4937C30.9937 36.375 28.5187 36.375 26.1375 36.2906C23.2125 36.1969 20.3062 35.9719 17.3812 36.0937C15.4687 36.1687 13.2563 36.3094 11.5219 35.325C9.50625 34.1906 8.925 31.8281 8.72812 29.6812C8.61562 28.4812 8.59688 27.2812 8.55937 26.0719C8.5125 24.9 8.38125 23.7281 8.4375 22.5563C8.50312 21.4406 8.68125 20.3063 9.225 19.3125C9.7125 18.4031 10.3969 17.6438 11.1562 16.9688C11.7 16.7438 12.2531 16.5375 12.825 16.3688C15.4781 16.3125 18.1219 16.3688 20.775 16.4063C23.6062 16.4438 26.4094 15.9469 29.2312 15.7875C31.0031 15.6844 33.1219 15.6938 34.5563 16.9125C36.2906 18.375 36.4125 21.0656 36.4219 23.1656C36.4219 24.4781 36.3469 25.8 36.4125 27.1125C36.4594 28.2281 36.6375 29.325 36.6094 30.4406Z" fill="#EF4823"/>
<path d="M35.55 29.475C35.475 28.3031 35.3532 27.1406 35.3625 25.9688C35.3719 24.6375 35.4375 23.3062 35.3532 21.975C35.2782 20.8125 35.1563 19.4344 34.5094 18.4313C33.4594 16.7906 31.2844 16.725 29.5313 16.8187C26.7 16.9687 23.8782 17.4844 21.0282 17.4469C18.4875 17.4188 15.9563 17.3625 13.4157 17.4C13.3969 17.4 13.3875 17.4 13.3688 17.4C13.2375 17.4 13.1063 17.4 12.9844 17.4094C12.9094 17.4094 12.8344 17.4094 12.75 17.4094C12.75 17.4187 12.7407 17.4187 12.7407 17.4281C12.5719 17.4562 12.4032 17.4937 12.2532 17.5594C12.1875 17.5875 12.1313 17.6156 12.0657 17.6531C12.0375 17.6437 12.0094 17.625 11.9813 17.6062C10.65 18.75 9.70316 20.1281 9.50628 21.9375C9.30941 23.6906 9.56253 25.5 9.61878 27.2625C9.67503 29.0437 9.71253 30.9656 10.4438 32.625C11.0907 34.0875 12.3282 34.7625 13.8657 34.9875C14.8594 35.1281 15.8532 35.1187 16.8563 35.0812C18.2344 35.025 19.6125 35.0063 21 35.0344C23.6813 35.0906 26.3719 35.4094 29.0438 35.2594C31.1438 35.1375 34.2094 34.7531 35.175 32.55C35.6063 31.5844 35.6157 30.5062 35.55 29.475ZM25.7344 25.9969C25.725 26.0906 25.6969 26.1844 25.6219 26.2781C25.3125 26.6812 24.7782 26.9437 24.3563 27.225C23.8875 27.5437 23.4094 27.8437 22.9313 28.1531C21.9844 28.7719 21.0469 29.4 20.175 30.1125C19.9782 30.2719 19.7719 30.2437 19.6219 30.1312C19.4813 30.0656 19.3875 29.925 19.3688 29.7281C19.2563 27.2906 19.0875 24.8531 19.0875 22.4156C19.0875 22.1344 19.2657 21.9656 19.4813 21.9C19.6032 21.8344 19.7625 21.825 19.9313 21.9094C20.5594 22.2469 21.1688 22.6219 21.7969 22.9688C22.3875 23.3062 23.0719 23.55 23.6438 23.9062C24.0094 24.1406 24.3657 24.3844 24.7313 24.6188C24.9 24.7313 25.0688 24.8438 25.2469 24.9375C25.3125 24.975 25.3782 25.0125 25.4532 25.0406C25.4719 25.05 25.4813 25.05 25.4813 25.05C25.9125 25.1531 26.1188 25.7812 25.7344 25.9969Z" fill="#D6E5E5"/>
<path d="M24.5344 25.7344C24.1219 25.4719 23.7188 25.1906 23.3063 24.9281C22.7344 24.5625 22.0688 24.3188 21.4782 23.9906C21.0282 23.7375 20.5782 23.475 20.1282 23.2125C20.1563 25.0406 20.2594 26.8594 20.3532 28.6875C21 28.2094 21.675 27.7594 22.3594 27.3188C22.8375 27.0094 23.3157 26.7 23.7844 26.3906C24.0188 26.2313 24.2532 26.0719 24.4876 25.9125C24.5344 25.875 24.5813 25.8375 24.6375 25.8C24.6 25.7719 24.5719 25.7531 24.5344 25.7344Z" fill="#EF4823"/>
<path d="M43.1156 15.4312C40.7531 11.6437 36.9281 8.71875 32.925 6.84375C28.8656 4.95 24.2156 4.07813 19.7719 4.84688C12.1031 6.17813 4.78125 11.85 2.625 19.4437C2.31563 19.9594 2.26875 20.6719 2.1375 21.2437C2.04375 21.6469 1.97813 22.0594 1.92188 22.4719C1.9125 22.5094 1.9125 22.5562 1.90313 22.5937C1.89375 22.6219 1.88438 22.6406 1.88438 22.6687C1.80938 23.0625 1.74375 23.4562 1.6875 23.85C1.6875 23.8594 1.67813 23.8594 1.67813 23.8687C1.63125 23.9812 1.62188 24.0844 1.64063 24.1687C1.54688 24.9281 1.48125 25.6875 1.425 26.4469C1.35 27.5156 1.34063 28.5937 1.39688 29.6625C1.51875 31.7531 1.92188 33.8344 2.64375 35.8031C4.07813 39.7219 6.90938 42.975 10.7156 44.7375C12.8813 45.7312 15.2906 46.3031 17.6438 46.6125C20.0344 46.9219 22.4719 46.9031 24.8625 46.5562C29.6344 45.8625 34.0969 43.7719 37.6219 40.4812C41.0344 37.3031 43.7156 33.2062 44.9438 28.6875C46.1906 24.1875 45.6 19.4156 43.1156 15.4312ZM34.5563 41.8031C30.5813 44.5969 25.7344 45.9094 20.9063 45.9C18.4594 45.8906 16.0219 45.5062 13.6781 44.8219C11.5313 44.1937 9.53438 43.2469 7.82813 41.7937C5.34375 39.6844 3.76875 36.7312 2.95313 33.6094C2.52188 31.9687 2.33438 30.2719 2.30625 28.575C2.2875 27.7125 2.325 26.85 2.40938 25.9875C2.44688 25.575 2.48438 25.1625 2.53125 24.75C2.53125 24.7312 2.53125 24.7031 2.53125 24.6844C2.55938 24.4875 2.5875 24.2906 2.60625 24.0937C2.85938 23.4094 2.83125 22.65 2.9625 21.9375C3.0375 21.5531 3.13125 21.1687 3.21563 20.7844C3.23438 20.7094 3.24375 20.625 3.25313 20.5312C3.29063 20.4375 3.3375 20.3344 3.38438 20.2406C3.42188 20.1094 3.45 19.9687 3.4875 19.8375C3.53438 19.7531 3.5625 19.6687 3.55313 19.5937C5.67188 12.3094 12.8438 6.89062 20.2406 5.71875C24.7313 5.00625 29.3625 6.075 33.375 8.10938C37.3688 10.125 41.1375 13.3312 43.1438 17.3906C47.4563 26.1562 41.9156 36.6281 34.5563 41.8031Z" fill="black"/>
<path d="M36.4126 27.1219C36.3563 25.8094 36.4313 24.4875 36.4219 23.175C36.4126 21.075 36.2907 18.3937 34.5563 16.9219C33.1219 15.7031 31.0032 15.7031 29.2313 15.7969C26.4094 15.9562 23.6063 16.4531 20.7751 16.4156C18.1219 16.3781 15.4782 16.3312 12.8251 16.3781C12.2532 16.5375 11.7001 16.7438 11.1563 16.9781C10.3969 17.6531 9.71256 18.4125 9.22506 19.3219C8.69068 20.325 8.50318 21.45 8.43756 22.5656C8.37193 23.7375 8.51256 24.9094 8.55943 26.0813C8.60631 27.2813 8.61568 28.4906 8.72818 29.6906C8.93443 31.8375 9.51568 34.2 11.5219 35.3344C13.2563 36.3094 15.4688 36.1781 17.3813 36.1031C20.3157 35.9812 23.2126 36.2063 26.1376 36.3C28.5188 36.375 30.9938 36.3844 33.2438 35.5031C34.3219 35.0813 35.2407 34.4437 35.8782 33.4594C36.4501 32.5781 36.5813 31.4812 36.6094 30.45C36.6376 29.325 36.4594 28.2281 36.4126 27.1219ZM35.1844 32.55C34.2188 34.7531 31.1532 35.1375 29.0532 35.2594C26.3719 35.4094 23.6813 35.0906 21.0094 35.0344C19.6313 35.0063 18.2438 35.025 16.8657 35.0813C15.8719 35.1188 14.8688 35.1281 13.8751 34.9875C12.3376 34.7719 11.0907 34.0875 10.4532 32.625C9.72193 30.9656 9.68443 29.0437 9.62818 27.2625C9.57193 25.5 9.32818 23.6906 9.51568 21.9375C9.71256 20.1281 10.6594 18.75 11.9907 17.6063C12.0188 17.625 12.0469 17.6438 12.0751 17.6531C12.1313 17.6156 12.1969 17.5875 12.2626 17.5594C12.4219 17.4938 12.5813 17.4562 12.7501 17.4281C12.7501 17.4187 12.7594 17.4187 12.7594 17.4094C12.8344 17.4094 12.9094 17.4094 12.9938 17.4094C13.1251 17.4 13.2563 17.4 13.3782 17.4C13.3969 17.4 13.4157 17.4 13.4251 17.4C15.9657 17.3625 18.4969 17.4094 21.0376 17.4469C23.8782 17.4844 26.7001 16.9594 29.5407 16.8187C31.2938 16.725 33.4688 16.7906 34.5188 18.4313C35.1657 19.4438 35.2876 20.8125 35.3626 21.975C35.4469 23.3062 35.3813 24.6375 35.3719 25.9688C35.3626 27.1406 35.4844 28.3031 35.5594 29.475C35.6157 30.5062 35.6063 31.5844 35.1844 32.55Z" fill="black"/>
<path d="M25.4719 25.0688C25.4625 25.0688 25.4531 25.0594 25.4437 25.0594C25.3687 25.0312 25.3031 24.9938 25.2375 24.9563C25.0594 24.8625 24.8906 24.75 24.7219 24.6375C24.3563 24.4031 24.0094 24.15 23.6344 23.925C23.0625 23.5594 22.3875 23.3156 21.7875 22.9875C21.1687 22.6406 20.55 22.2656 19.9219 21.9281C19.7531 21.8344 19.6031 21.8438 19.4719 21.9188C19.2656 21.9844 19.0781 22.1531 19.0781 22.4344C19.0781 24.8719 19.2469 27.3094 19.3594 29.7469C19.3688 29.9531 19.4719 30.0844 19.6125 30.15C19.7625 30.2719 19.9688 30.2906 20.1656 30.1313C21.0375 29.4188 21.975 28.7906 22.9219 28.1719C23.4 27.8625 23.8781 27.5531 24.3469 27.2438C24.7688 26.9625 25.3031 26.6906 25.6125 26.2969C25.6875 26.2031 25.7156 26.1094 25.725 26.0156C26.1187 25.7813 25.9125 25.1531 25.4719 25.0688ZM24.4781 25.9031C24.2438 26.0625 24.0094 26.2219 23.775 26.3813C23.3063 26.7 22.8281 27 22.35 27.3094C21.675 27.75 21 28.2 20.3438 28.6781C20.25 26.8594 20.1469 25.0313 20.1188 23.2031C20.5688 23.4563 21.0187 23.7188 21.4688 23.9813C22.0594 24.3188 22.725 24.5531 23.2969 24.9187C23.7094 25.1812 24.1125 25.4719 24.525 25.725C24.5531 25.7438 24.5906 25.7625 24.6188 25.7813C24.5813 25.8281 24.5344 25.8656 24.4781 25.9031Z" fill="black"/>
</svg>
